<?xml version="1.0" encoding="utf-8"?>
<!-- Generator: Adobe Illustrator 22.0.1, SVG Export Plug-In . SVG Version: 6.00 Build 0)  -->
<svg version="1.1" id="Layer_1" xmlns="http://www.w3.org/2000/svg" xmlns:xlink="http://www.w3.org/1999/xlink" x="0px" y="0px"
	 viewBox="0 0 512 512" style="enable-background:new 0 0 512 512;" xml:space="preserve">
<style type="text/css">
	.st0{fill:#FFFFFF;}
</style>
<g>
	<g>
		<path class="st0" d="M276.3,291.3c-6,0-10.9,4.9-10.9,10.9c0,6,4.9,10.9,10.9,10.9c6,0,10.9-4.9,10.9-10.9
			C287.1,296.2,282.3,291.3,276.3,291.3z"/>
	</g>
</g>
<g>
	<g>
		<path class="st0" d="M236.1,291.3c-6,0-10.9,4.9-10.9,10.9c0,6,4.9,10.9,10.9,10.9c6,0,10.9-4.9,10.9-10.9
			C247,296.2,242.1,291.3,236.1,291.3z"/>
	</g>
</g>
<g>
	<g>
		<path class="st0" d="M458.2,132c-9.1,0-17.9,2.3-25.7,6.5c-5.7-11.1-12.5-21.7-20.3-31.6c-3.7-4.7-10.5-5.5-15.2-1.8
			c-4.7,3.7-5.5,10.5-1.9,15.2c9.4,12,17.2,25.1,23.2,39c9.1,21.2,14,43.7,14.4,66.9c0,1,0,2,0,3v85.6c0,79.8-65,144.8-144.8,144.8
			H224c-79.8,0-144.8-65-144.8-144.8v-85.6c0-1,0-2,0-3c0.4-23.3,5.2-45.8,14.4-67c28-64.9,91.7-106.8,162.4-106.8
			c32.5,0,64.3,8.9,91.9,25.7c5.1,3.1,11.8,1.5,14.9-3.6c3.1-5.1,1.5-11.8-3.6-14.9c-31-18.9-66.7-28.9-103.2-28.9
			c-74.8,0-142.7,41.9-176.6,107.8c-7.8-4.3-16.6-6.5-25.7-6.5C24.1,132,0,156.1,0,185.7c0,29.6,24.1,53.8,53.8,53.8
			c1.3,0,2.5-0.1,3.8-0.1v75.4c0,91.8,74.7,166.5,166.5,166.5H288c91.8,0,166.5-74.7,166.5-166.5v-75.4c1.3,0.1,2.5,0.1,3.8,0.1
			c29.6,0,53.8-24.1,53.8-53.8C512,156.1,487.9,132,458.2,132z M57.9,217.5c-1.4,0.2-2.7,0.3-4.1,0.3c-17.7,0-32-14.4-32-32
			c0-17.7,14.4-32.1,32-32.1c6,0,11.8,1.7,16.8,4.7C63.3,177.3,59.1,197.1,57.9,217.5z M458.2,217.8c-1.4,0-2.8-0.1-4.1-0.3
			c-1.2-20.3-5.4-40.1-12.7-59.1c5-3.1,10.8-4.7,16.8-4.7c17.7,0,32,14.4,32,32.1C490.3,203.4,475.9,217.8,458.2,217.8z"/>
	</g>
</g>
<g>
	<g>
		<path class="st0" d="M414.6,231c0-49.5-40.3-89.8-89.8-89.8c-26.7,0-51.9,12-68.8,32.1c-16.9-20.1-42-32.1-68.8-32.1
			c-49.5,0-89.9,40.3-89.9,89.8c0,43.4,30.5,79.6,71.7,88c-1.9,7.4-2.9,15-2.9,22.7c0,49.5,40.3,89.8,89.8,89.8
			c49.5,0,89.9-40.3,89.9-89.8c0-7.7-1-15.4-2.9-22.7C384.1,310.6,414.6,274.4,414.6,231z M327.8,299.1c-3.6,0.2-6.9,2.1-8.7,5.1
			c-1.9,3-2.2,6.8-0.7,10.1c3.8,8.7,5.8,17.9,5.8,27.4c0,37.6-30.6,68.1-68.1,68.1c-37.6,0-68.1-30.6-68.1-68.1
			c0-9.5,1.9-18.8,5.8-27.5c1.4-3.3,1.2-7.1-0.7-10.1c-1.9-3-5.2-5-8.7-5.1c-36.5-1.6-65.1-31.5-65.1-68.1
			c0-37.6,30.6-68.1,68.1-68.1c24.5,0,47.2,13.3,59.3,34.6c1.9,3.4,5.5,5.5,9.4,5.5s7.5-2.1,9.4-5.5c12.1-21.4,34.8-34.6,59.3-34.6
			c37.6,0,68.1,30.6,68.1,68.1C392.9,267.6,364.3,297.5,327.8,299.1z"/>
	</g>
</g>
<g>
	<g>
		<path class="st0" d="M192.8,214.6c-17.5,0-31.8,14.3-31.8,31.8c0,6,4.9,10.9,10.9,10.9s10.9-4.9,10.9-10.9
			c0-5.5,4.5-10.1,10.1-10.1c5.5,0,10.1,4.5,10.1,10.1c0,6,4.9,10.9,10.9,10.9s10.9-4.9,10.9-10.9
			C224.6,228.8,210.3,214.6,192.8,214.6z"/>
	</g>
</g>
<g>
	<g>
		<path class="st0" d="M319.2,214.6c-17.5,0-31.8,14.3-31.8,31.8c0,6,4.9,10.9,10.9,10.9s10.9-4.9,10.9-10.9
			c0-5.5,4.5-10.1,10.1-10.1c5.5,0,10.1,4.5,10.1,10.1c0,6,4.9,10.9,10.9,10.9s10.9-4.9,10.9-10.9
			C351,228.8,336.7,214.6,319.2,214.6z"/>
	</g>
</g>
<g>
	<g>
		<path class="st0" d="M276.9,340.7c-6,0-10.9,4.9-10.9,10.9c0,5.5-4.5,10.1-10.1,10.1c-5.5,0-10.1-4.5-10.1-10.1
			c0-6-4.9-10.9-10.9-10.9s-10.9,4.9-10.9,10.9c0,17.5,14.3,31.8,31.8,31.8s31.8-14.3,31.8-31.8
			C287.8,345.6,282.9,340.7,276.9,340.7z"/>
	</g>
</g>
</svg>
